{
	"asset":{
		"generator":"Khronos glTF Blender I/O v4.0.44",
		"version":"2.0"
	},
	"extensionsUsed":[
		"KHR_materials_emissive_strength"
	],
	"scene":0,
	"scenes":[
		{
			"name":"Scene",
			"nodes":[
				0,
				1,
				2
			]
		}
	],
	"nodes":[
		{
			"mesh":0,
			"name":"Text",
			"scale":[
				35.83176803588867,
				5.560698509216309,
				35.83176803588867
			],
			"translation":[
				0,
				1.7131136655807495,
				-0.4400559663772583
			]
		},
		{
			"mesh":1,
			"name":"Text.001",
			"scale":[
				35.83176803588867,
				5.560698509216309,
				35.83176803588867
			],
			"translation":[
				0,
				1.7131136655807495,
				-0.4400559663772583
			]
		},
		{
			"mesh":2,
			"name":"kali",
			"rotation":[
				0,
				0,
				-0.7913680672645569,
				0.6113400459289551
			],
			"scale":[
				1.52177095413208,
				1.52177095413208,
				1.52177095413208
			],
			"translation":[
				1.2939703464508057,
				0.4704209864139557,
				-11.176419258117676
			]
		}
	],
	"animations":[
		{
			"channels":[
				{
					"sampler":0,
					"target":{
						"node":0,
						"path":"translation"
					}
				}
			],
			"name":"TextAction",
			"samplers":[
				{
					"input":10,
					"interpolation":"LINEAR",
					"output":11
				}
			]
		}
	],
	"materials":[
		{
			"doubleSided":true,
			"emissiveFactor":[
				1,
				1,
				1
			],
			"extensions":{
				"KHR_materials_emissive_strength":{
					"emissiveStrength":10
				}
			},
			"name":"Material",
			"pbrMetallicRoughness":{
				"baseColorFactor":[
					0,
					0,
					0,
					1
				]
			}
		},
		{
			"doubleSided":true,
			"name":"Material.002",
			"pbrMetallicRoughness":{
				"baseColorFactor":[
					0.800000011920929,
					0.800000011920929,
					0.800000011920929,
					1
				],
				"metallicFactor":0.8778625726699829,
				"roughnessFactor":0.2633591890335083
			}
		},
		{
			"doubleSided":true,
			"name":"Material.001",
			"pbrMetallicRoughness":{
				"baseColorFactor":[
					0.800000011920929,
					0.800000011920929,
					0.800000011920929,
					1
				],
				"metallicFactor":0.8778625726699829,
				"roughnessFactor":0.2633591890335083
			}
		}
	],
	"meshes":[
		{
			"name":"I HATE KALI",
			"primitives":[
				{
					"attributes":{
						"POSITION":0,
						"NORMAL":1,
						"TEXCOORD_0":2
					},
					"indices":3,
					"material":0
				}
			]
		},
		{
			"name":"I HATE KALI.001",
			"primitives":[
				{
					"attributes":{
						"POSITION":4,
						"NORMAL":5,
						"TEXCOORD_0":6
					},
					"indices":3,
					"material":1
				}
			]
		},
		{
			"name":"Plane",
			"primitives":[
				{
					"attributes":{
						"POSITION":7,
						"NORMAL":8
					},
					"indices":9,
					"material":2
				}
			]
		}
	],
	"accessors":[
		{
			"bufferView":0,
			"componentType":5126,
			"count":345,
			"max":[
				2.3305001258850098,
				0.4099999964237213,
				0.34300002455711365
			],
			"min":[
				-2.3305001258850098,
				-0.4099999964237213,
				-0.34300002455711365
			],
			"type":"VEC3"
		},
		{
			"bufferView":1,
			"componentType":5126,
			"count":345,
			"type":"VEC3"
		},
		{
			"bufferView":2,
			"componentType":5126,
			"count":345,
			"type":"VEC2"
		},
		{
			"bufferView":3,
			"componentType":5123,
			"count":864,
			"type":"SCALAR"
		},
		{
			"bufferView":4,
			"componentType":5126,
			"count":345,
			"max":[
				2.3305001258850098,
				0.4099999964237213,
				0.34300002455711365
			],
			"min":[
				-2.3305001258850098,
				-0.4099999964237213,
				-0.34300002455711365
			],
			"type":"VEC3"
		},
		{
			"bufferView":5,
			"componentType":5126,
			"count":345,
			"type":"VEC3"
		},
		{
			"bufferView":6,
			"componentType":5126,
			"count":345,
			"type":"VEC2"
		},
		{
			"bufferView":7,
			"componentType":5126,
			"count":3592,
			"max":[
				36.85728454589844,
				2.504826545715332,
				44.88203048706055
			],
			"min":[
				-58.06432342529297,
				-0.4704713821411133,
				-25.506498336791992
			],
			"type":"VEC3"
		},
		{
			"bufferView":8,
			"componentType":5126,
			"count":3592,
			"type":"VEC3"
		},
		{
			"bufferView":9,
			"componentType":5123,
			"count":8115,
			"type":"SCALAR"
		},
		{
			"bufferView":10,
			"componentType":5126,
			"count":1,
			"max":[
				0.1
			],
			"min":[
				0.1
			],
			"type":"SCALAR"
		},
		{
			"bufferView":11,
			"componentType":5126,
			"count":1,
			"type":"VEC3"
		}
	],
	"bufferViews":[
		{
			"buffer":0,
			"byteLength":4140,
			"byteOffset":0,
			"target":34962
		},
		{
			"buffer":0,
			"byteLength":4140,
			"byteOffset":4140,
			"target":34962
		},
		{
			"buffer":0,
			"byteLength":2760,
			"byteOffset":8280,
			"target":34962
		},
		{
			"buffer":0,
			"byteLength":1728,
			"byteOffset":11040,
			"target":34963
		},
		{
			"buffer":0,
			"byteLength":4140,
			"byteOffset":12768,
			"target":34962
		},
		{
			"buffer":0,
			"byteLength":4140,
			"byteOffset":16908,
			"target":34962
		},
		{
			"buffer":0,
			"byteLength":2760,
			"byteOffset":21048,
			"target":34962
		},
		{
			"buffer":0,
			"byteLength":43104,
			"byteOffset":23808,
			"target":34962
		},
		{
			"buffer":0,
			"byteLength":43104,
			"byteOffset":66912,
			"target":34962
		},
		{
			"buffer":0,
			"byteLength":16230,
			"byteOffset":110016,
			"target":34963
		},
		{
			"buffer":0,
			"byteLength":4,
			"byteOffset":126248
		},
		{
			"buffer":0,
			"byteLength":12,
			"byteOffset":126252
		}
	],
	"buffers":[
		{
			"byteLength":126264,
			"uri":"kali.bin"
		}
	]
}
